<svg class="recharts-surface" width="839" height="600" viewBox="0 0 839 600" style="width: 100%; height: 100%;"><title></title><desc></desc><defs><clipPath id="recharts2-clip"><rect x="120" y="20" height="360" width="689"></rect></clipPath></defs><g class="recharts-cartesian-grid"><g class="recharts-cartesian-grid-horizontal"><line stroke-dasharray="3 3" stroke="#ccc" fill="none" x="120" y="20" width="689" height="360" x1="120" y1="380" x2="809" y2="380"></line><line stroke-dasharray="3 3" stroke="#ccc" fill="none" x="120" y="20" width="689" height="360" x1="120" y1="290" x2="809" y2="290"></line><line stroke-dasharray="3 3" stroke="#ccc" fill="none" x="120" y="20" width="689" height="360" x1="120" y1="200" x2="809" y2="200"></line><line stroke-dasharray="3 3" stroke="#ccc" fill="none" x="120" y="20" width="689" height="360" x1="120" y1="110" x2="809" y2="110"></line><line stroke-dasharray="3 3" stroke="#ccc" fill="none" x="120" y="20" width="689" height="360" x1="120" y1="20" x2="809" y2="20"></line></g><g class="recharts-cartesian-grid-vertical"><line stroke-dasharray="3 3" stroke="#ccc" fill="none" x="120" y="20" width="689" height="360" x1="148.70833333333334" y1="20" x2="148.70833333333334" y2="380"></line><line stroke-dasharray="3 3" stroke="#ccc" fill="none" x="120" y="20" width="689" height="360" x1="206.125" y1="20" x2="206.125" y2="380"></line><line stroke-dasharray="3 3" stroke="#ccc" fill="none" x="120" y="20" width="689" height="360" x1="263.54166666666663" y1="20" x2="263.54166666666663" y2="380"></line><line stroke-dasharray="3 3" stroke="#ccc" fill="none" x="120" y="20" width="689" height="360" x1="320.9583333333333" y1="20" x2="320.9583333333333" y2="380"></line><line stroke-dasharray="3 3" stroke="#ccc" fill="none" x="120" y="20" width="689" height="360" x1="378.37499999999994" y1="20" x2="378.37499999999994" y2="380"></line><line stroke-dasharray="3 3" stroke="#ccc" fill="none" x="120" y="20" width="689" height="360" x1="435.79166666666663" y1="20" x2="435.79166666666663" y2="380"></line><line stroke-dasharray="3 3" stroke="#ccc" fill="none" x="120" y="20" width="689" height="360" x1="493.2083333333333" y1="20" x2="493.2083333333333" y2="380"></line><line stroke-dasharray="3 3" stroke="#ccc" fill="none" x="120" y="20" width="689" height="360" x1="550.625" y1="20" x2="550.625" y2="380"></line><line stroke-dasharray="3 3" stroke="#ccc" fill="none" x="120" y="20" width="689" height="360" x1="608.0416666666666" y1="20" x2="608.0416666666666" y2="380"></line><line stroke-dasharray="3 3" stroke="#ccc" fill="none" x="120" y="20" width="689" height="360" x1="665.4583333333334" y1="20" x2="665.4583333333334" y2="380"></line><line stroke-dasharray="3 3" stroke="#ccc" fill="none" x="120" y="20" width="689" height="360" x1="722.875" y1="20" x2="722.875" y2="380"></line><line stroke-dasharray="3 3" stroke="#ccc" fill="none" x="120" y="20" width="689" height="360" x1="780.2916666666666" y1="20" x2="780.2916666666666" y2="380"></line><line stroke-dasharray="3 3" stroke="#ccc" fill="none" x="120" y="20" width="689" height="360" x1="120" y1="20" x2="120" y2="380"></line><line stroke-dasharray="3 3" stroke="#ccc" fill="none" x="120" y="20" width="689" height="360" x1="809" y1="20" x2="809" y2="380"></line></g></g><g class="recharts-layer recharts-cartesian-axis recharts-xAxis xAxis"><line orientation="bottom" width="689" height="100" angle="-45" text-anchor="end" font-size="12" x="120" y="380" class="recharts-cartesian-axis-line" stroke="#666" fill="none" x1="120" y1="380" x2="809" y2="380"></line><g class="recharts-cartesian-axis-ticks"><g class="recharts-layer recharts-cartesian-axis-tick"><line orientation="bottom" width="689" height="100" angle="-45" text-anchor="end" font-size="12" x="120" y="380" class="recharts-cartesian-axis-tick-line" stroke="#666" fill="none" x1="148.70833333333334" y1="386" x2="148.70833333333334" y2="380"></line><text orientation="bottom" width="689" height="100" font-size="12" stroke="none" transform="rotate(-45, 140.70833333333334, 388)" x="140.70833333333334" y="388" class="recharts-text recharts-cartesian-axis-tick-value" text-anchor="end" fill="#666"><tspan x="140.70833333333334" dy="0.71em">Setor Aeroporto, Morrinhos - GO</tspan></text></g><g class="recharts-layer recharts-cartesian-axis-tick"><line orientation="bottom" width="689" height="100" angle="-45" text-anchor="end" font-size="12" x="120" y="380" class="recharts-cartesian-axis-tick-line" stroke="#666" fill="none" x1="206.125" y1="386" x2="206.125" y2="380"></line><text orientation="bottom" width="689" height="100" font-size="12" stroke="none" transform="rotate(-45, 198.125, 388)" x="198.125" y="388" class="recharts-text recharts-cartesian-axis-tick-value" text-anchor="end" fill="#666"><tspan x="198.125" dy="0.71em">Setor sul, Formosa - GO</tspan></text></g><g class="recharts-layer recharts-cartesian-axis-tick"><line orientation="bottom" width="689" height="100" angle="-45" text-anchor="end" font-size="12" x="120" y="380" class="recharts-cartesian-axis-tick-line" stroke="#666" fill="none" x1="263.54166666666663" y1="386" x2="263.54166666666663" y2="380"></line><text orientation="bottom" width="689" height="100" font-size="12" stroke="none" transform="rotate(-45, 255.54166666666663, 388)" x="255.54166666666663" y="388" class="recharts-text recharts-cartesian-axis-tick-value" text-anchor="end" fill="#666"><tspan x="255.54166666666663" dy="0.71em">Dona constância Turvelandia - Goiás</tspan></text></g><g class="recharts-layer recharts-cartesian-axis-tick"><line orientation="bottom" width="689" height="100" angle="-45" text-anchor="end" font-size="12" x="120" y="380" class="recharts-cartesian-axis-tick-line" stroke="#666" fill="none" x1="320.9583333333333" y1="386" x2="320.9583333333333" y2="380"></line><text orientation="bottom" width="689" height="100" font-size="12" stroke="none" transform="rotate(-45, 312.9583333333333, 388)" x="312.9583333333333" y="388" class="recharts-text recharts-cartesian-axis-tick-value" text-anchor="end" fill="#666"><tspan x="312.9583333333333" dy="0.71em">Anápolis, Goiás, Tesouro</tspan></text></g><g class="recharts-layer recharts-cartesian-axis-tick"><line orientation="bottom" width="689" height="100" angle="-45" text-anchor="end" font-size="12" x="120" y="380" class="recharts-cartesian-axis-tick-line" stroke="#666" fill="none" x1="378.37499999999994" y1="386" x2="378.37499999999994" y2="380"></line><text orientation="bottom" width="689" height="100" font-size="12" stroke="none" transform="rotate(-45, 370.37499999999994, 388)" x="370.37499999999994" y="388" class="recharts-text recharts-cartesian-axis-tick-value" text-anchor="end" fill="#666"><tspan x="370.37499999999994" dy="0.71em">Bairro da vitória</tspan></text></g><g class="recharts-layer recharts-cartesian-axis-tick"><line orientation="bottom" width="689" height="100" angle="-45" text-anchor="end" font-size="12" x="120" y="380" class="recharts-cartesian-axis-tick-line" stroke="#666" fill="none" x1="435.79166666666663" y1="386" x2="435.79166666666663" y2="380"></line><text orientation="bottom" width="689" height="100" font-size="12" stroke="none" transform="rotate(-45, 427.79166666666663, 388)" x="427.79166666666663" y="388" class="recharts-text recharts-cartesian-axis-tick-value" text-anchor="end" fill="#666"><tspan x="427.79166666666663" dy="0.71em">Jardim das morangas, Serranópolis-Goiás</tspan></text></g><g class="recharts-layer recharts-cartesian-axis-tick"><line orientation="bottom" width="689" height="100" angle="-45" text-anchor="end" font-size="12" x="120" y="380" class="recharts-cartesian-axis-tick-line" stroke="#666" fill="none" x1="493.2083333333333" y1="386" x2="493.2083333333333" y2="380"></line><text orientation="bottom" width="689" height="100" font-size="12" stroke="none" transform="rotate(-45, 485.2083333333333, 388)" x="485.2083333333333" y="388" class="recharts-text recharts-cartesian-axis-tick-value" text-anchor="end" fill="#666"><tspan x="485.2083333333333" dy="0.71em">Residencial Alice Barbosa/ Goiânia - Go</tspan></text></g><g class="recharts-layer recharts-cartesian-axis-tick"><line orientation="bottom" width="689" height="100" angle="-45" text-anchor="end" font-size="12" x="120" y="380" class="recharts-cartesian-axis-tick-line" stroke="#666" fill="none" x1="550.625" y1="386" x2="550.625" y2="380"></line><text orientation="bottom" width="689" height="100" font-size="12" stroke="none" transform="rotate(-45, 542.625, 388)" x="542.625" y="388" class="recharts-text recharts-cartesian-axis-tick-value" text-anchor="end" fill="#666"><tspan x="542.625" dy="0.71em">Eloy chaves/ Jundiai - SP</tspan></text></g><g class="recharts-layer recharts-cartesian-axis-tick"><line orientation="bottom" width="689" height="100" angle="-45" text-anchor="end" font-size="12" x="120" y="380" class="recharts-cartesian-axis-tick-line" stroke="#666" fill="none" x1="608.0416666666666" y1="386" x2="608.0416666666666" y2="380"></line><text orientation="bottom" width="689" height="100" font-size="12" stroke="none" transform="rotate(-45, 600.0416666666666, 388)" x="600.0416666666666" y="388" class="recharts-text recharts-cartesian-axis-tick-value" text-anchor="end" fill="#666"><tspan x="600.0416666666666" dy="0.71em">Jataí - Go</tspan></text></g><g class="recharts-layer recharts-cartesian-axis-tick"><line orientation="bottom" width="689" height="100" angle="-45" text-anchor="end" font-size="12" x="120" y="380" class="recharts-cartesian-axis-tick-line" stroke="#666" fill="none" x1="665.4583333333334" y1="386" x2="665.4583333333334" y2="380"></line><text orientation="bottom" width="689" height="100" font-size="12" stroke="none" transform="rotate(-45, 657.4583333333334, 388)" x="657.4583333333334" y="388" class="recharts-text recharts-cartesian-axis-tick-value" text-anchor="end" fill="#666"><tspan x="657.4583333333334" dy="0.71em">Anicuns - Goiás</tspan></text></g><g class="recharts-layer recharts-cartesian-axis-tick"><line orientation="bottom" width="689" height="100" angle="-45" text-anchor="end" font-size="12" x="120" y="380" class="recharts-cartesian-axis-tick-line" stroke="#666" fill="none" x1="722.875" y1="386" x2="722.875" y2="380"></line><text orientation="bottom" width="689" height="100" font-size="12" stroke="none" transform="rotate(-45, 714.875, 388)" x="714.875" y="388" class="recharts-text recharts-cartesian-axis-tick-value" text-anchor="end" fill="#666"><tspan x="714.875" dy="0.71em">Anicuns - Goiás</tspan></text></g><g class="recharts-layer recharts-cartesian-axis-tick"><line orientation="bottom" width="689" height="100" angle="-45" text-anchor="end" font-size="12" x="120" y="380" class="recharts-cartesian-axis-tick-line" stroke="#666" fill="none" x1="780.2916666666666" y1="386" x2="780.2916666666666" y2="380"></line><text orientation="bottom" width="689" height="100" font-size="12" stroke="none" transform="rotate(-45, 772.2916666666666, 388)" x="772.2916666666666" y="388" class="recharts-text recharts-cartesian-axis-tick-value" text-anchor="end" fill="#666"><tspan x="772.2916666666666" dy="0.71em">Selvíria MS, centro</tspan></text></g></g></g><g class="recharts-layer recharts-cartesian-axis recharts-yAxis yAxis"><line orientation="left" width="60" height="360" x="60" y="20" class="recharts-cartesian-axis-line" stroke="#666" fill="none" x1="120" y1="20" x2="120" y2="380"></line><g class="recharts-cartesian-axis-ticks"><g class="recharts-layer recharts-cartesian-axis-tick"><line orientation="left" width="60" height="360" x="60" y="20" class="recharts-cartesian-axis-tick-line" stroke="#666" fill="none" x1="114" y1="380" x2="120" y2="380"></line><text orientation="left" width="60" height="360" stroke="none" x="112" y="380" class="recharts-text recharts-cartesian-axis-tick-value" text-anchor="end" fill="#666"><tspan x="112" dy="0.355em">0%</tspan></text></g><g class="recharts-layer recharts-cartesian-axis-tick"><line orientation="left" width="60" height="360" x="60" y="20" class="recharts-cartesian-axis-tick-line" stroke="#666" fill="none" x1="114" y1="290" x2="120" y2="290"></line><text orientation="left" width="60" height="360" stroke="none" x="112" y="290" class="recharts-text recharts-cartesian-axis-tick-value" text-anchor="end" fill="#666"><tspan x="112" dy="0.355em">25%</tspan></text></g><g class="recharts-layer recharts-cartesian-axis-tick"><line orientation="left" width="60" height="360" x="60" y="20" class="recharts-cartesian-axis-tick-line" stroke="#666" fill="none" x1="114" y1="200" x2="120" y2="200"></line><text orientation="left" width="60" height="360" stroke="none" x="112" y="200" class="recharts-text recharts-cartesian-axis-tick-value" text-anchor="end" fill="#666"><tspan x="112" dy="0.355em">50%</tspan></text></g><g class="recharts-layer recharts-cartesian-axis-tick"><line orientation="left" width="60" height="360" x="60" y="20" class="recharts-cartesian-axis-tick-line" stroke="#666" fill="none" x1="114" y1="110" x2="120" y2="110"></line><text orientation="left" width="60" height="360" stroke="none" x="112" y="110" class="recharts-text recharts-cartesian-axis-tick-value" text-anchor="end" fill="#666"><tspan x="112" dy="0.355em">75%</tspan></text></g><g class="recharts-layer recharts-cartesian-axis-tick"><line orientation="left" width="60" height="360" x="60" y="20" class="recharts-cartesian-axis-tick-line" stroke="#666" fill="none" x1="114" y1="20" x2="120" y2="20"></line><text orientation="left" width="60" height="360" stroke="none" x="112" y="20" class="recharts-text recharts-cartesian-axis-tick-value" text-anchor="end" fill="#666"><tspan x="112" dy="0.355em">100%</tspan></text></g></g><text offset="-40" transform="rotate(-90, 20, 200)" x="20" y="200" class="recharts-text recharts-label" text-anchor="start" fill="#808080"><tspan x="20" dy="0.355em">Percentual (%)</tspan></text></g><g class="recharts-layer recharts-bar"><g class="recharts-layer recharts-bar-rectangles"><g class="recharts-layer"><g class="recharts-layer recharts-bar-rectangle"><path x="125.74166666666666" y="20" width="45" height="360" radius="0" fill="#4F46E5" name="Percentual" class="recharts-rectangle" d="M 125.74166666666666,20 h 45 v 360 h -45 Z"></path></g><g class="recharts-layer recharts-bar-rectangle"><path x="183.15833333333333" y="20" width="45" height="360" radius="0" fill="#4F46E5" name="Percentual" class="recharts-rectangle" d="M 183.15833333333333,20 h 45 v 360 h -45 Z"></path></g><g class="recharts-layer recharts-bar-rectangle"><path x="240.575" y="20" width="45" height="360" radius="0" fill="#4F46E5" name="Percentual" class="recharts-rectangle" d="M 240.575,20 h 45 v 360 h -45 Z"></path></g><g class="recharts-layer recharts-bar-rectangle"><path x="297.9916666666667" y="20" width="45" height="360" radius="0" fill="#4F46E5" name="Percentual" class="recharts-rectangle" d="M 297.9916666666667,20 h 45 v 360 h -45 Z"></path></g><g class="recharts-layer recharts-bar-rectangle"><path x="355.4083333333333" y="110" width="45" height="270" radius="0" fill="#4F46E5" name="Percentual" class="recharts-rectangle" d="M 355.4083333333333,110 h 45 v 270 h -45 Z"></path></g><g class="recharts-layer recharts-bar-rectangle"><path x="412.825" y="139.88" width="45" height="240.12" radius="0" fill="#4F46E5" name="Percentual" class="recharts-rectangle" d="M 412.825,139.88 h 45 v 240.12 h -45 Z"></path></g><g class="recharts-layer recharts-bar-rectangle"><path x="470.2416666666667" y="174.8" width="45" height="205.2" radius="0" fill="#4F46E5" name="Percentual" class="recharts-rectangle" d="M 470.2416666666667,174.8 h 45 v 205.2 h -45 Z"></path></g><g class="recharts-layer recharts-bar-rectangle"><path x="527.6583333333333" y="188.12000000000003" width="45" height="191.87999999999997" radius="0" fill="#4F46E5" name="Percentual" class="recharts-rectangle" d="M 527.6583333333333,188.12000000000003 h 45 v 191.87999999999997 h -45 Z"></path></g><g class="recharts-layer recharts-bar-rectangle"><path x="585.0749999999999" y="200" width="45" height="180" radius="0" fill="#4F46E5" name="Percentual" class="recharts-rectangle" d="M 585.0749999999999,200 h 45 v 180 h -45 Z"></path></g><g class="recharts-layer recharts-bar-rectangle"><path x="642.4916666666667" y="200" width="45" height="180" radius="0" fill="#4F46E5" name="Percentual" class="recharts-rectangle" d="M 642.4916666666667,200 h 45 v 180 h -45 Z"></path></g><g class="recharts-layer recharts-bar-rectangle"><path x="699.9083333333333" y="200" width="45" height="180" radius="0" fill="#4F46E5" name="Percentual" class="recharts-rectangle" d="M 699.9083333333333,200 h 45 v 180 h -45 Z"></path></g><g class="recharts-layer recharts-bar-rectangle"><path x="757.3249999999999" y="200" width="45" height="180" radius="0" fill="#4F46E5" name="Percentual" class="recharts-rectangle" d="M 757.3249999999999,200 h 45 v 180 h -45 Z"></path></g></g></g><g class="recharts-layer"></g></g></svg>